<svg width="783" height="564" viewBox="0 0 783 564" fill="none" xmlns="http://www.w3.org/2000/svg">
<path d="M783 170C783 170 759.903 6.31276 683.5 1.00017C603.643 -4.55257 578.5 105.5 567.5 170C556.5 234.5 565.143 279.343 527.5 333C460.289 428.802 352.475 386.68 237.5 408.5C169 421.5 119.375 447.719 61 498.5C34.728 521.354 0.5 564 0.5 564H783V170Z" fill="#F178B6"/>
<path d="M783 237.5C783 237.5 770.114 274.975 746 325.5C704 413.5 620.412 407.202 567.5 414.5C524 420.5 478.753 443.391 491 496C504.465 553.84 683 564 683 564H783L783 237.5Z" fill="#EF5DA8"/>
</svg>
